<?xml version="1.0" encoding="UTF-8"?>
<svg xmlns="http://www.w3.org/2000/svg" width="26.458mm" height="26.104mm" viewBox="0 0 26.458 26.104">
  <g transform="translate(-60.496 -99.54) scale(.44643)">
    <path fill="#fff" d="M150.61 277.44v-3.7042h-14.817v-31.221h14.817v-19.315h31.093l12.828 12.836v45.107H150.61z"/>
    <g transform="translate(.50959 .82834)">
      <path fill="#999898" d="M149.82 276.89c0-3.1162.013-3.8052.013-3.8052l.80095.0343-.0202 6.6813h42.862v-43.921h-2.3812c-1.9121 0-6.0158-.0145-6.0158-.0145l-1.5395-.84938 9.6789-.0621-11.913-11.902v2.4452c0 1.9971-.0105 3.6185-.0105 3.6185s-.78323-.86467-.78323.0173c0 .88195.76892.24623.76892.24623s.0248 1.2972.0248 2.5319.004 2.6893.004 2.6893-.79754-.79312-.79754.0888v1.1906h-25.135v-2.3812h25.135v-3.175h-25.135v-2.3812h25.135v-5.0271h-29.898l.0404 18.958-.84136-.0535s.007-1.6333.007-10.041v-9.6573h31.622l12.828 12.836v45.637h-44.45zm5.5562-2.9104v-.79375h5.6885c4.8801 0 2.3286-.20573 2.3286-.54621 0-.3464 4.7563-.24754 14.34-.24754h10.98v2.3812h-33.337zm11.377-5.9531v-1.1906h21.96v2.3812h-21.96zm0-5.5562v-1.1906h21.96v2.3812h-21.96zm0-5.5562v-1.1906h21.96v2.3812h-21.96zm0-5.5562v-1.1906h21.96v2.3812h-21.96zm0-5.5562v-1.1906h21.96v2.3812h-21.96zm-11.377-5.5562v-1.1906h33.337v2.3812h-33.337z"/>
      <path fill="#676566" d="M180.51 234.69c0-.88194.00021-1.1906.00021-1.1906l.79354-.008v1.4949h7.353l.0267.88338s-.60344.0105-4.0724.0105h-4.101zm.0002-4.3656v-2.3812l.77924.0172.004 2.364z"/>
      <path fill="#295595" d="M135.01 257.32v-15.875h31.75v31.75h-31.75zm29.369 3.8365v-9.6573h-.61302c-.53462 0-1.1414 1.0065-4.7452 7.8714l-4.1322 7.8714-4.7829.152-.1466-7.6477-4.3982 7.6281h-4.2008v-15.875h-2.1167v-3.175h9.525v3.175h-2.3812l.0438 5.6885 4.2792-8.8635h4.4083l.006 9.1281 1.705-2.9104 1.705-2.9104-1.8291-.1642v-3.143h7.6729v-4.4979h-26.988v26.988h26.988z"/>
    </g>
  </g>
</svg>